# xmcd CD database file
#
# Track frame offsets:
#	183
#	19940
#	33913
#	48903
#	62815
#	82008
#	94573
#	109605
#	123085
#	135270
#
# Disc length: 2010 seconds
#
# Revision: 0
# Processed by: cddbd v1.4PL0 Copyright (c) Steve Scherf et al.
# Submitted via: CDex 1.40PlusFr
#
DISCID=7307d80a
DTITLE=John Hammond - Footwork
DYEAR=1978
DGENRE=Blues
TTITLE0=Preaching Blues
TTITLE1=Crossroads Blues
TTITLE2=Broke Down Engine
TTITLE3=Who Do You Love
TTITLE4=Forty Four Riflle Blues
TTITLE5=Ask Me Nice
TTITLE6=Driving Wheel
TTITLE7=Every Body Crying' Mercy
TTITLE8=Go No Further
TTITLE9=Come On In My Kitchen
EXTD=YEAR: 1978 ID3G: 0
EXTT0=
EXTT1=
EXTT2=
EXTT3=
EXTT4=
EXTT5=
EXTT6=
EXTT7=
EXTT8=
EXTT9=
PLAYORDER=
